<?xml version="1.0" encoding="UTF-8" standalone="no"?>
<svg
   version="1.0"
   width="512.000000pt"
   height="512.000000pt"
   viewBox="0 0 512.000000 512.000000"
   preserveAspectRatio="xMidYMid meet"
   id="svg49"
   sodipodi:docname="icon.svg"
   xml:space="preserve"
   inkscape:version="1.4 (86a8ad7, 2024-10-11)"
   inkscape:export-filename="icon-dark.png"
   inkscape:export-xdpi="72"
   inkscape:export-ydpi="72"
   xmlns:inkscape="http://www.inkscape.org/namespaces/inkscape"
   xmlns:sodipodi="http://sodipodi.sourceforge.net/DTD/sodipodi-0.dtd"
   xmlns="http://www.w3.org/2000/svg"
   xmlns:svg="http://www.w3.org/2000/svg"><defs
     id="defs49" /><sodipodi:namedview
     id="namedview49"
     pagecolor="#ffffff"
     bordercolor="#000000"
     borderopacity="0.25"
     inkscape:showpageshadow="2"
     inkscape:pageopacity="0.0"
     inkscape:pagecheckerboard="0"
     inkscape:deskcolor="#d1d1d1"
     inkscape:document-units="pt"
     inkscape:zoom="1.2087797"
     inkscape:cx="268.8662"
     inkscape:cy="341.25325"
     inkscape:window-width="3440"
     inkscape:window-height="1369"
     inkscape:window-x="-8"
     inkscape:window-y="-8"
     inkscape:window-maximized="1"
     inkscape:current-layer="svg49"
     showguides="true" /><g
     id="g76"
     transform="matrix(0.83007814,0,0,0.83007814,42.999702,43.5)"
     inkscape:label="light"
     style="display:none"><rect
       style="fill:#ffffff;fill-opacity:1;stroke:none;stroke-width:0.999997;stroke-dasharray:none;stroke-opacity:0.492997"
       id="rect76"
       width="512"
       height="512"
       x="0"
       y="-2.8421709e-14"
       transform="matrix(1.2047058,0,0,1.2047058,-51.801993,-52.404705)" /><path
       style="fill:#171717;fill-opacity:1;stroke:none;stroke-width:2.11312;stroke-dasharray:none;stroke-opacity:0.492997"
       d="M 72.886046,3.8038e-4 72.841884,7.8969586 108.9267,58.870737 c 0,0 0.53298,369.271643 0,381.266803 -0.533,11.99517 -11.925386,36.63701 -35.992706,61.18813 l -0.02133,10.60872 215.870096,0.0656 -0.004,-11.15779 c -16.21925,-14.47915 -34.15067,-35.72883 -34.52908,-50.73844 -0.37839,-15.00961 -0.23176,-156.21511 -0.23176,-156.21511 l 85.00279,3e-5 32.02541,28.57546 9.51994,-0.0674 -0.23178,-150.18897 -11.13729,0.42562 -21.54269,13.07516 -92.94106,0.0579 0.46355,-52.26488 h 99.66245 c 12.67494,-1.19023 25.81978,-7.17648 33.14357,-15.29702 l 46.7118,39.343 5.66892,0.004 V 0 Z"
       id="path50"
       sodipodi:nodetypes="ccczcccczccccccccccccccc" /><path
       style="fill:#ffffff;fill-opacity:1;stroke:none;stroke-width:2.11312;stroke-dasharray:none;stroke-opacity:0.492997"
       d="M 407.45053,21.091739 401.888,17.615131 106.8408,17.846897 c 24.43874,43.346243 51.80059,73.659402 69.99545,109.628703 3.92749,-3.10994 7.04015,-4.99764 9.73449,-6.25788 C 177.89932,87.992224 146.00572,59.2642 131.40875,31.057969 h 45.4275 c -2.44058,10.929876 -8.7627,20.041603 -15.52875,28.50809 l 9.50268,10.893362 c 16.46027,-20.160425 16.8219,-28.612752 20.39604,-39.401452 l 206.2781,-0.463533 z"
       id="path51"
       sodipodi:nodetypes="cccccccccccc" /><path
       style="fill:#ffffff;fill-opacity:1;stroke:none;stroke-width:2.11312;stroke-dasharray:none;stroke-opacity:0.492997"
       d="m 289.47801,52.381096 c 45.93052,-11.680267 78.35284,-9.494329 120.29027,34.997731 l -0.46353,-26.422124 c -2.82453,0.327555 -4.65944,0.231007 -11.58866,2.317732 -1.93144,-2.184543 -3.86288,-3.995442 -5.79434,-5.562553 10.42966,-9.502822 20.55068,-19.314289 30.36227,-29.435179 l 0.46354,90.623287 C 394.05249,97.017335 372.22662,48.786384 299.2125,63.042669 Z"
       id="path52"
       sodipodi:nodetypes="ccccccccc" /><path
       style="fill:#ffffff;fill-opacity:1;stroke:none;stroke-width:2.11312;stroke-dasharray:none;stroke-opacity:0.492997"
       d="m 306.39747,85.988205 c -19.5797,-22.912656 -57.85741,-51.568475 -89.928,-38.706109 -10.6257,4.261591 -22.12378,15.592051 -21.38707,31.514426 0.99474,21.499508 3.27297,59.784518 -10.82939,71.392848 l 8.80738,8.5756 c 12.54251,-9.64708 17.92661,-35.5755 14.30224,-75.529272 -1.13997,-12.566487 8.31153,-20.105461 10.03395,-21.351884 6.72865,-4.869135 17.34194,-5.990291 27.34922,-2.317755 10.0073,3.672537 32.95174,17.920306 48.20881,30.130523 4.98933,-1.258553 9.68823,-3.067192 13.44286,-3.708377 z"
       id="path53"
       sodipodi:nodetypes="cssccsszcc" /><path
       style="fill:#ffffff;fill-opacity:1;stroke:none;stroke-width:2.11312;stroke-dasharray:none;stroke-opacity:0.492997"
       d="m 125.38265,79.498562 0.23177,123.766838 13.67461,-12.97928 0.23177,-99.66245 z"
       id="path54"
       sodipodi:nodetypes="ccccc" /><path
       style="fill:#ffffff;fill-opacity:1;stroke:none;stroke-width:2.11312;stroke-dasharray:none;stroke-opacity:0.492997"
       d="m 251.699,113.80097 c 0,0 97.04545,1.73081 103.83436,-0.46354 6.78893,-2.19434 19.03417,-11.48629 21.5549,-16.224118 -2.71182,-3.192014 -5.75935,-5.980443 -12.05221,-8.575608 -5.30384,4.121597 -9.56422,9.534267 -16.91941,11.356879 -7.3552,1.822597 -88.30556,0.231777 -88.30556,0.231777 -0.90274,6.24076 -4.12831,11.13112 -8.11208,13.67461 z"
       id="path55"
       sodipodi:nodetypes="czcczcc" /><path
       style="fill:#ffffff;fill-opacity:1;stroke:none;stroke-width:2.11312;stroke-dasharray:none;stroke-opacity:0.492997"
       d="m 246.63495,75.005775 c 0,0 -17.16646,8.896041 -21.46937,23.927694 -4.30292,15.031651 -1.40041,82.550661 -1.14721,90.138601 0.25317,7.58791 2.13055,10.8166 2.13055,10.8166 l 10.48885,-4.58885 c -1.60341,-8.97837 -1.21393,-79.72663 1.14732,-90.95803 2.36122,-11.231422 17.53603,-18.027721 17.53603,-18.027721 -0.9746,-4.537754 -1.37409,-9.305542 -8.68617,-11.308294 z"
       id="path56"
       sodipodi:nodetypes="czzcczcc" /><path
       style="fill:#ffffff;fill-opacity:1;stroke:none;stroke-width:2.11312;stroke-dasharray:none;stroke-opacity:0.492997"
       d="m 151.08806,112.53621 c -0.56647,9.19792 -1.37611,18.63899 0.16397,25.73046 0,0 6.64621,21.81325 22.4527,36.05544 15.8065,14.2422 28.3527,39.66099 28.3527,39.66099 3.22409,-2.40417 5.28543,-4.06308 9.34163,-6.88331 0,0 -4.61882,-23.03125 -25.73048,-40.64432 -21.11165,-17.61305 -22.6166,-46.70818 -22.6166,-46.70818 -2.27576,-4.11588 -6.1921,-6.5912 -11.96384,-7.21108 z"
       id="path57"
       sodipodi:nodetypes="cczcczcc" /><path
       style="fill:#ffffff;fill-opacity:1;stroke:none;stroke-width:2.11312;stroke-dasharray:none;stroke-opacity:0.492997"
       d="m 159.33741,179.97222 c -34.52676,38.9364 -27.242,68.15058 -5.21489,93.86811 l 9.38681,-9.03915 c -24.07935,-25.20053 -15.70309,-50.36139 6.37376,-76.48513 z"
       id="path58"
       sodipodi:nodetypes="ccccc" /><path
       style="fill:#ffffff;fill-opacity:1;stroke:none;stroke-width:2.11312;stroke-dasharray:none;stroke-opacity:0.492997"
       d="m 200.58233,237.58302 c 0,0.28154 23.45353,-31.23155 56.04981,-32.77766 32.59628,-1.54612 76.37198,0.49166 76.37198,0.49166 l -9.34162,11.96385 c 0,0 -44.41416,-1.16987 -66.3748,0.49166 -21.96063,1.66152 -48.34707,28.35269 -48.34707,28.35269 z"
       id="path59"
       sodipodi:nodetypes="czcczcc" /><path
       style="fill:#ffffff;fill-opacity:1;stroke:none;stroke-width:2.11312;stroke-dasharray:none;stroke-opacity:0.492997"
       d="m 328.57913,232.99414 32.77768,-31.1388 0.32776,91.12195 c 0,0 -42.06745,-43.90422 -58.01648,-49.00265 -15.94899,-5.09843 -21.79713,4.09722 -21.79713,4.09722 -4.19887,-0.54629 -9.24257,-1.09259 -14.74994,-1.63888 0,0 8.80935,-17.09678 30.31931,-17.37215 21.50995,-0.27537 51.13319,32.28599 51.13319,32.28599 l 0.32777,-29.17211 c -6.99274,1.69473 -14.1619,4.53601 -20.32216,0.81943 z"
       id="path60"
       sodipodi:nodetypes="ccczcczccc" /><path
       style="fill:#ffffff;fill-opacity:1;stroke:none;stroke-width:2.11312;stroke-dasharray:none;stroke-opacity:0.492997"
       d="m 230.10041,245.25764 c 14.78925,22.85158 53.78475,45.44221 89.13708,21.00582 -3.11061,-3.48664 -6.0216,-6.79821 -10.72885,-10.13295 -26.37788,22.76332 -59.65158,-7.38193 -70.30809,-18.19163 z"
       id="path61"
       sodipodi:nodetypes="ccccc" /><path
       style="fill:#ffffff;fill-opacity:1;stroke:none;stroke-width:2.11312;stroke-dasharray:none;stroke-opacity:0.492997"
       d="m 167.56536,220.30074 -2.43362,14.71759 c 24.39529,15.31037 39.229,34.5815 31.63703,64.6647 l 9.27092,7.06909 c 7.72684,-27.07025 14.24065,-54.24358 -38.47433,-86.45138 z"
       id="path62"
       sodipodi:nodetypes="ccccc" /><path
       style="fill:#ffffff;fill-opacity:1;stroke:none;stroke-width:2.11312;stroke-dasharray:none;stroke-opacity:0.492997"
       d="m 178.22693,262.48343 c -18.0806,17.27203 -36.22197,34.15265 -20.51193,80.65706 5.31077,-2.80774 7.69354,-5.24949 10.66155,-7.76439 -12.31533,-36.29661 4.00581,-49.93255 18.65776,-64.31704 -2.10824,-2.44477 -3.20425,-4.38341 -8.80738,-8.57563 z"
       id="path63"
       sodipodi:nodetypes="ccccc" /><path
       style="fill:#ffffff;fill-opacity:1;stroke:none;stroke-width:2.11312;stroke-dasharray:none;stroke-opacity:0.492997"
       d="m 178.34279,310.92403 c 21.74099,18.47774 24.27108,39.20356 17.03534,61.07222 2.62439,2.19162 5.10767,4.34792 8.92328,6.83733 15.24091,-37.56481 1.77061,-63.07598 -21.90258,-80.54119 -1.64344,4.01625 -3.31467,8.01398 -4.05604,12.63164 z"
       id="path64"
       sodipodi:nodetypes="ccccc" /><path
       style="fill:#ffffff;fill-opacity:1;stroke:none;stroke-width:2.11312;stroke-dasharray:none;stroke-opacity:0.492997"
       d="m 185.64366,333.52192 c -32.64067,19.15967 -41.68057,47.82302 -28.27633,85.52428 3.8897,-3.4766 7.13907,-6.95319 10.42979,-10.42981 -8.66149,-29.77014 1.59641,-48.44232 20.97548,-61.8834 -0.83519,-5.23484 -1.9948,-9.172 -3.12894,-13.21107 z"
       id="path65"
       sodipodi:nodetypes="ccccc" /><path
       style="fill:#ffffff;fill-opacity:1;stroke:none;stroke-width:2.11312;stroke-dasharray:none;stroke-opacity:0.492997"
       d="m 179.2699,387.29328 c 12.57725,16.8456 21.6985,31.09562 17.15122,51.33773 l 10.3139,8.45974 c 2.41489,-17.37826 12.3566,-31.37873 -23.87263,-76.60103 z"
       id="path66"
       sodipodi:nodetypes="ccccc" /><path
       style="fill:#ffffff;fill-opacity:1;stroke:none;stroke-width:2.11312;stroke-dasharray:none;stroke-opacity:0.492997"
       d="m 178.94906,408.0269 c -12.42555,15.86378 -26.80977,28.35432 -31.79433,57.03314 l 15.56938,-5.40831 c 3.27652,-17.25467 15.97308,-32.42879 23.59994,-39.82488 z"
       id="path67"
       sodipodi:nodetypes="ccccc" /><path
       style="fill:#ffffff;fill-opacity:1;stroke:none;stroke-width:2.11312;stroke-dasharray:none;stroke-opacity:0.492997"
       d="m 223.48061,264.85913 c 0,0 0.53192,182.05529 0.48754,186.24425 -0.0443,4.18896 1.99341,10.91067 3.39468,13.19651 l 16.22411,9.21299 c -2.16322,-5.87648 -6.33514,-15.35293 -6.48965,-21.09136 -0.15447,-5.73841 -1.6224,-182.63722 -1.6224,-182.63722 -3.99811,-2.32948 -7.99618,-3.65684 -11.99428,-4.92517 z"
       id="path68"
       sodipodi:nodetypes="czcczcc" /><path
       style="fill:#ffffff;fill-opacity:1;stroke:none;stroke-width:2.11312;stroke-dasharray:none;stroke-opacity:0.492997"
       d="m 125.68535,260.19962 c 0,0 1.67425,178.02877 0.0562,188.85902 -1.61803,10.83029 -13.43333,35.08943 -21.6895,46.48465 H 256.4682 c -24.3699,-12.73174 -51.32162,-36.10718 -72.43863,-56.13177 -2.29445,3.31766 -4.75277,6.53475 -7.21109,11.55413 l 33.76099,30.81102 -83.58304,0.65553 c 0,0 11.61353,-25.2406 12.08797,-33.10884 0.47445,-7.86823 0.34766,-174.09259 0.34766,-174.09259 -0.58605,-7.58858 -3.63363,-13.58907 -13.74675,-15.03115 z"
       id="path69"
       sodipodi:nodetypes="czcccccczccc" /></g><g
     id="g20"
     transform="matrix(0.83007814,0,0,0.83007814,42.999702,43.5)"
     inkscape:label="dark"
     style="display:inline"><rect
       style="fill:#171717;fill-opacity:1;stroke:none;stroke-width:0.999997;stroke-dasharray:none;stroke-opacity:0.492997"
       id="rect1"
       width="512"
       height="512"
       x="0"
       y="-2.8421709e-14"
       transform="matrix(1.2047058,0,0,1.2047058,-51.801993,-52.404705)" /><path
       style="fill:#ffffff;fill-opacity:1;stroke:none;stroke-width:2.11312;stroke-dasharray:none;stroke-opacity:0.492997"
       d="M 72.886046,3.8038e-4 72.841884,7.8969586 108.9267,58.870737 c 0,0 0.53298,369.271643 0,381.266803 -0.533,11.99517 -11.925386,36.63701 -35.992706,61.18813 l -0.02133,10.60872 215.870096,0.0656 -0.004,-11.15779 c -16.21925,-14.47915 -34.15067,-35.72883 -34.52908,-50.73844 -0.37839,-15.00961 -0.23176,-156.21511 -0.23176,-156.21511 l 85.00279,3e-5 32.02541,28.57546 9.51994,-0.0674 -0.23178,-150.18897 -11.13729,0.42562 -21.54269,13.07516 -92.94106,0.0579 0.46355,-52.26488 h 99.66245 c 12.67494,-1.19023 25.81978,-7.17648 33.14357,-15.29702 l 46.7118,39.343 5.66892,0.004 V 0 Z"
       id="path1"
       sodipodi:nodetypes="ccczcccczccccccccccccccc" /><path
       style="fill:#171717;fill-opacity:1;stroke:none;stroke-width:2.11312;stroke-dasharray:none;stroke-opacity:0.492997"
       d="M 407.45053,21.091739 401.888,17.615131 106.8408,17.846897 c 24.43874,43.346243 51.80059,73.659402 69.99545,109.628703 3.92749,-3.10994 7.04015,-4.99764 9.73449,-6.25788 C 177.89932,87.992224 146.00572,59.2642 131.40875,31.057969 h 45.4275 c -2.44058,10.929876 -8.7627,20.041603 -15.52875,28.50809 l 9.50268,10.893362 c 16.46027,-20.160425 16.8219,-28.612752 20.39604,-39.401452 l 206.2781,-0.463533 z"
       id="path2"
       sodipodi:nodetypes="cccccccccccc" /><path
       style="fill:#171717;fill-opacity:1;stroke:none;stroke-width:2.11312;stroke-dasharray:none;stroke-opacity:0.492997"
       d="m 289.47801,52.381096 c 45.93052,-11.680267 78.35284,-9.494329 120.29027,34.997731 l -0.46353,-26.422124 c -2.82453,0.327555 -4.65944,0.231007 -11.58866,2.317732 -1.93144,-2.184543 -3.86288,-3.995442 -5.79434,-5.562553 10.42966,-9.502822 20.55068,-19.314289 30.36227,-29.435179 l 0.46354,90.623287 C 394.05249,97.017335 372.22662,48.786384 299.2125,63.042669 Z"
       id="path3"
       sodipodi:nodetypes="ccccccccc" /><path
       style="fill:#171717;fill-opacity:1;stroke:none;stroke-width:2.11312;stroke-dasharray:none;stroke-opacity:0.492997"
       d="m 306.39747,85.988205 c -19.5797,-22.912656 -57.85741,-51.568475 -89.928,-38.706109 -10.6257,4.261591 -22.12378,15.592051 -21.38707,31.514426 0.99474,21.499508 3.27297,59.784518 -10.82939,71.392848 l 8.80738,8.5756 c 12.54251,-9.64708 17.92661,-35.5755 14.30224,-75.529272 -1.13997,-12.566487 8.31153,-20.105461 10.03395,-21.351884 6.72865,-4.869135 17.34194,-5.990291 27.34922,-2.317755 10.0073,3.672537 32.95174,17.920306 48.20881,30.130523 4.98933,-1.258553 9.68823,-3.067192 13.44286,-3.708377 z"
       id="path4"
       sodipodi:nodetypes="cssccsszcc" /><path
       style="fill:#171717;fill-opacity:1;stroke:none;stroke-width:2.11312;stroke-dasharray:none;stroke-opacity:0.492997"
       d="m 125.38265,79.498562 0.23177,123.766838 13.67461,-12.97928 0.23177,-99.66245 z"
       id="path5"
       sodipodi:nodetypes="ccccc" /><path
       style="fill:#171717;fill-opacity:1;stroke:none;stroke-width:2.11312;stroke-dasharray:none;stroke-opacity:0.492997"
       d="m 251.699,113.80097 c 0,0 97.04545,1.73081 103.83436,-0.46354 6.78893,-2.19434 19.03417,-11.48629 21.5549,-16.224118 -2.71182,-3.192014 -5.75935,-5.980443 -12.05221,-8.575608 -5.30384,4.121597 -9.56422,9.534267 -16.91941,11.356879 -7.3552,1.822597 -88.30556,0.231777 -88.30556,0.231777 -0.90274,6.24076 -4.12831,11.13112 -8.11208,13.67461 z"
       id="path6"
       sodipodi:nodetypes="czcczcc" /><path
       style="fill:#171717;fill-opacity:1;stroke:none;stroke-width:2.11312;stroke-dasharray:none;stroke-opacity:0.492997"
       d="m 246.63495,75.005775 c 0,0 -17.16646,8.896041 -21.46937,23.927694 -4.30292,15.031651 -1.40041,82.550661 -1.14721,90.138601 0.25317,7.58791 2.13055,10.8166 2.13055,10.8166 l 10.48885,-4.58885 c -1.60341,-8.97837 -1.21393,-79.72663 1.14732,-90.95803 2.36122,-11.231422 17.53603,-18.027721 17.53603,-18.027721 -0.9746,-4.537754 -1.37409,-9.305542 -8.68617,-11.308294 z"
       id="path7"
       sodipodi:nodetypes="czzcczcc" /><path
       style="fill:#171717;fill-opacity:1;stroke:none;stroke-width:2.11312;stroke-dasharray:none;stroke-opacity:0.492997"
       d="m 151.08806,112.53621 c -0.56647,9.19792 -1.37611,18.63899 0.16397,25.73046 0,0 6.64621,21.81325 22.4527,36.05544 15.8065,14.2422 28.3527,39.66099 28.3527,39.66099 3.22409,-2.40417 5.28543,-4.06308 9.34163,-6.88331 0,0 -4.61882,-23.03125 -25.73048,-40.64432 -21.11165,-17.61305 -22.6166,-46.70818 -22.6166,-46.70818 -2.27576,-4.11588 -6.1921,-6.5912 -11.96384,-7.21108 z"
       id="path8"
       sodipodi:nodetypes="cczcczcc" /><path
       style="fill:#171717;fill-opacity:1;stroke:none;stroke-width:2.11312;stroke-dasharray:none;stroke-opacity:0.492997"
       d="m 159.33741,179.97222 c -34.52676,38.9364 -27.242,68.15058 -5.21489,93.86811 l 9.38681,-9.03915 c -24.07935,-25.20053 -15.70309,-50.36139 6.37376,-76.48513 z"
       id="path9"
       sodipodi:nodetypes="ccccc" /><path
       style="fill:#171717;fill-opacity:1;stroke:none;stroke-width:2.11312;stroke-dasharray:none;stroke-opacity:0.492997"
       d="m 200.58233,237.58302 c 0,0.28154 23.45353,-31.23155 56.04981,-32.77766 32.59628,-1.54612 76.37198,0.49166 76.37198,0.49166 l -9.34162,11.96385 c 0,0 -44.41416,-1.16987 -66.3748,0.49166 -21.96063,1.66152 -48.34707,28.35269 -48.34707,28.35269 z"
       id="path10"
       sodipodi:nodetypes="czcczcc" /><path
       style="fill:#171717;fill-opacity:1;stroke:none;stroke-width:2.11312;stroke-dasharray:none;stroke-opacity:0.492997"
       d="m 328.57913,232.99414 32.77768,-31.1388 0.32776,91.12195 c 0,0 -42.06745,-43.90422 -58.01648,-49.00265 -15.94899,-5.09843 -21.79713,4.09722 -21.79713,4.09722 -4.19887,-0.54629 -9.24257,-1.09259 -14.74994,-1.63888 0,0 8.80935,-17.09678 30.31931,-17.37215 21.50995,-0.27537 51.13319,32.28599 51.13319,32.28599 l 0.32777,-29.17211 c -6.99274,1.69473 -14.1619,4.53601 -20.32216,0.81943 z"
       id="path11"
       sodipodi:nodetypes="ccczcczccc" /><path
       style="fill:#171717;fill-opacity:1;stroke:none;stroke-width:2.11312;stroke-dasharray:none;stroke-opacity:0.492997"
       d="m 230.10041,245.25764 c 14.78925,22.85158 53.78475,45.44221 89.13708,21.00582 -3.11061,-3.48664 -6.0216,-6.79821 -10.72885,-10.13295 -26.37788,22.76332 -59.65158,-7.38193 -70.30809,-18.19163 z"
       id="path12"
       sodipodi:nodetypes="ccccc" /><path
       style="fill:#171717;fill-opacity:1;stroke:none;stroke-width:2.11312;stroke-dasharray:none;stroke-opacity:0.492997"
       d="m 167.56536,220.30074 -2.43362,14.71759 c 24.39529,15.31037 39.229,34.5815 31.63703,64.6647 l 9.27092,7.06909 c 7.72684,-27.07025 14.24065,-54.24358 -38.47433,-86.45138 z"
       id="path13"
       sodipodi:nodetypes="ccccc" /><path
       style="fill:#171717;fill-opacity:1;stroke:none;stroke-width:2.11312;stroke-dasharray:none;stroke-opacity:0.492997"
       d="m 178.22693,262.48343 c -18.0806,17.27203 -36.22197,34.15265 -20.51193,80.65706 5.31077,-2.80774 7.69354,-5.24949 10.66155,-7.76439 -12.31533,-36.29661 4.00581,-49.93255 18.65776,-64.31704 -2.10824,-2.44477 -3.20425,-4.38341 -8.80738,-8.57563 z"
       id="path14"
       sodipodi:nodetypes="ccccc" /><path
       style="fill:#171717;fill-opacity:1;stroke:none;stroke-width:2.11312;stroke-dasharray:none;stroke-opacity:0.492997"
       d="m 178.34279,310.92403 c 21.74099,18.47774 24.27108,39.20356 17.03534,61.07222 2.62439,2.19162 5.10767,4.34792 8.92328,6.83733 15.24091,-37.56481 1.77061,-63.07598 -21.90258,-80.54119 -1.64344,4.01625 -3.31467,8.01398 -4.05604,12.63164 z"
       id="path15"
       sodipodi:nodetypes="ccccc" /><path
       style="fill:#171717;fill-opacity:1;stroke:none;stroke-width:2.11312;stroke-dasharray:none;stroke-opacity:0.492997"
       d="m 185.64366,333.52192 c -32.64067,19.15967 -41.68057,47.82302 -28.27633,85.52428 3.8897,-3.4766 7.13907,-6.95319 10.42979,-10.42981 -8.66149,-29.77014 1.59641,-48.44232 20.97548,-61.8834 -0.83519,-5.23484 -1.9948,-9.172 -3.12894,-13.21107 z"
       id="path16"
       sodipodi:nodetypes="ccccc" /><path
       style="fill:#171717;fill-opacity:1;stroke:none;stroke-width:2.11312;stroke-dasharray:none;stroke-opacity:0.492997"
       d="m 179.2699,387.29328 c 12.57725,16.8456 21.6985,31.09562 17.15122,51.33773 l 10.3139,8.45974 c 2.41489,-17.37826 12.3566,-31.37873 -23.87263,-76.60103 z"
       id="path17"
       sodipodi:nodetypes="ccccc" /><path
       style="fill:#171717;fill-opacity:1;stroke:none;stroke-width:2.11312;stroke-dasharray:none;stroke-opacity:0.492997"
       d="m 178.94906,408.0269 c -12.42555,15.86378 -26.80977,28.35432 -31.79433,57.03314 l 15.56938,-5.40831 c 3.27652,-17.25467 15.97308,-32.42879 23.59994,-39.82488 z"
       id="path18"
       sodipodi:nodetypes="ccccc" /><path
       style="fill:#171717;fill-opacity:1;stroke:none;stroke-width:2.11312;stroke-dasharray:none;stroke-opacity:0.492997"
       d="m 223.48061,264.85913 c 0,0 0.53192,182.05529 0.48754,186.24425 -0.0443,4.18896 1.99341,10.91067 3.39468,13.19651 l 16.22411,9.21299 c -2.16322,-5.87648 -6.33514,-15.35293 -6.48965,-21.09136 -0.15447,-5.73841 -1.6224,-182.63722 -1.6224,-182.63722 -3.99811,-2.32948 -7.99618,-3.65684 -11.99428,-4.92517 z"
       id="path19"
       sodipodi:nodetypes="czcczcc" /><path
       style="fill:#171717;fill-opacity:1;stroke:none;stroke-width:2.11312;stroke-dasharray:none;stroke-opacity:0.492997"
       d="m 125.68535,260.19962 c 0,0 1.67425,178.02877 0.0562,188.85902 -1.61803,10.83029 -13.43333,35.08943 -21.6895,46.48465 H 256.4682 c -24.3699,-12.73174 -51.32162,-36.10718 -72.43863,-56.13177 -2.29445,3.31766 -4.75277,6.53475 -7.21109,11.55413 l 33.76099,30.81102 -83.58304,0.65553 c 0,0 11.61353,-25.2406 12.08797,-33.10884 0.47445,-7.86823 0.34766,-174.09259 0.34766,-174.09259 -0.58605,-7.58858 -3.63363,-13.58907 -13.74675,-15.03115 z"
       id="path20"
       sodipodi:nodetypes="czcccccczccc" /></g></svg>
